<svg width="28" height="24" xmlns="http://www.w3.org/2000/svg">
 <!-- Created with SVG Editor - http://github.com/mzalive/SVG Editor/ -->

 <g>
  <title>background</title>
  <rect fill="#fff" id="canvas_background" height="26" width="30" y="-1" x="-1"/>
  <g display="none" overflow="visible" y="0" x="0" height="100%" width="100%" id="canvasGrid">
   <rect fill="url(#gridpattern)" stroke-width="0" y="0" x="0" height="100%" width="100%"/>
  </g>
 </g>
 <g>
  <title>Layer 1</title>
  <g stroke="null" id="svg_7">
   <g stroke="null" transform="matrix(0.07784267859086469,0,0,0.08665465520729564,154.94763663458212,111.84133975500743) " id="svg_5">
    <path stroke="null" stroke-width="0" id="svg_6" d="m-1186.549123,-933.482773c-2.558,-3.666 -6.674,-5.932 -11.145,-6.123l-277.187,-11.948c-7.953,-0.348 -14.599,5.792 -14.939,13.708c-0.338,7.913 5.792,14.599 13.707,14.939l258.421,11.14l-50.811,158.534l-226.115,0l-40.851,-222.431c-0.898,-4.875 -4.245,-8.942 -8.861,-10.753l-66.907,-26.285c-7.374,-2.887 -15.695,0.735 -18.591,8.1c-2.891,7.369 0.73,15.695 8.1,18.591l59.491,23.371l41.572,226.335c1.253,6.804 7.183,11.746 14.104,11.746l6.896,0l-15.747,43.74c-1.318,3.664 -0.775,7.733 1.468,10.916c2.24,3.184 5.883,5.078 9.772,5.078l11.045,0c-6.844,7.617 -11.045,17.646 -11.045,28.675c0,23.718 19.299,43.012 43.012,43.012s43.012,-19.294 43.012,-43.012c0,-11.028 -4.201,-21.058 -11.044,-28.675l93.777,0c-6.847,7.617 -11.047,17.646 -11.047,28.675c0,23.718 19.294,43.012 43.012,43.012c23.719,0 43.012,-19.294 43.012,-43.012c0,-11.028 -4.2,-21.058 -11.042,-28.675l13.432,0c6.6,0 11.948,-5.349 11.948,-11.947c0,-6.6 -5.349,-11.948 -11.948,-11.948l-229.124,0l12.902,-35.843l216.221,0c6.235,0 11.752,-4.028 13.651,-9.96l59.739,-186.387c1.372,-4.254 0.668,-8.905 -1.89,-12.573zm-274.61,316.454c-10.543,0 -19.117,-8.573 -19.117,-19.116s8.574,-19.117 19.117,-19.117s19.116,8.574 19.116,19.117s-8.573,19.116 -19.116,19.116zm157.709,0c-10.543,0 -19.116,-8.573 -19.116,-19.116s8.573,-19.117 19.116,-19.117s19.116,8.574 19.116,19.117s-8.573,19.116 -19.116,19.116z"/>
   </g>
  </g>
  <metadata transform="matrix(0.25,0,0,0.25,0,0) ">Svg Vector Icons : http://www.onlinewebfonts.com/icon</metadata>
  <g stroke="null" id="svg_48">
   <g stroke="null" transform="matrix(0.05081406737990752,0,0,0.045007030965786676,1.31940894575257,2.4204910952259753) " id="svg_30">
    <g stroke="null" id="svg_31">
     <path stroke="null" id="svg_32" d="m439.242331,471.152328l-134.77,0c-6.208,0 -11.231,-5.023 -11.231,-11.231l0,-146l-89.846,0l0,146c0,6.208 -5.023,11.231 -11.231,11.231l-134.769,0c-6.208,0 -11.231,-5.023 -11.231,-11.231l0,-224.615c0,-6.208 5.023,-11.231 11.231,-11.231c6.208,0 11.231,5.023 11.231,11.231l0,213.385l112.308,0l0,-146c0,-6.208 5.023,-11.231 11.231,-11.231l112.308,0c6.208,0 11.231,5.023 11.231,11.231l0,146l112.308,0l0,-202.154c0,-6.208 5.023,-11.231 11.231,-11.231c6.208,0 11.231,5.023 11.231,11.231l0,213.385c-0.002,6.207 -5.025,11.23 -11.232,11.23zm67.384,-235.846c-2.873,0 -5.747,-1.097 -7.94,-3.29l-250.368,-250.367l-250.367,250.367c-4.387,4.387 -11.494,4.387 -15.881,0c-4.387,-4.387 -4.387,-11.494 0,-15.881l258.308,-258.308c4.387,-4.387 11.494,-4.387 15.881,0l258.308,258.308c4.387,4.387 4.387,11.494 0,15.881c-2.194,2.193 -5.067,3.29 -7.941,3.29zm-89.846,-157.231c-6.208,0 -11.231,-5.023 -11.231,-11.231l0,-67.384l-67.385,0c-6.208,0 -11.231,-5.023 -11.231,-11.231s5.023,-11.231 11.231,-11.231l78.616,0c6.208,0 11.231,5.023 11.231,11.231l0,78.615c0,6.208 -5.023,11.231 -11.231,11.231z"/>
    </g>
   </g>
   <g stroke="null" transform="matrix(0.05081406737990752,0,0,0.045007030965786676,1.31940894575257,2.4204910952259753) " id="svg_33"/>
   <g stroke="null" transform="matrix(0.05081406737990752,0,0,0.045007030965786676,1.31940894575257,2.4204910952259753) " id="svg_34"/>
   <g stroke="null" transform="matrix(0.05081406737990752,0,0,0.045007030965786676,1.31940894575257,2.4204910952259753) " id="svg_35"/>
   <g stroke="null" transform="matrix(0.05081406737990752,0,0,0.045007030965786676,1.31940894575257,2.4204910952259753) " id="svg_36"/>
   <g stroke="null" transform="matrix(0.05081406737990752,0,0,0.045007030965786676,1.31940894575257,2.4204910952259753) " id="svg_37"/>
   <g stroke="null" transform="matrix(0.05081406737990752,0,0,0.045007030965786676,1.31940894575257,2.4204910952259753) " id="svg_38"/>
   <g stroke="null" transform="matrix(0.05081406737990752,0,0,0.045007030965786676,1.31940894575257,2.4204910952259753) " id="svg_39"/>
   <g stroke="null" transform="matrix(0.05081406737990752,0,0,0.045007030965786676,1.31940894575257,2.4204910952259753) " id="svg_40"/>
   <g stroke="null" transform="matrix(0.05081406737990752,0,0,0.045007030965786676,1.31940894575257,2.4204910952259753) " id="svg_41"/>
   <g stroke="null" transform="matrix(0.05081406737990752,0,0,0.045007030965786676,1.31940894575257,2.4204910952259753) " id="svg_42"/>
   <g stroke="null" transform="matrix(0.05081406737990752,0,0,0.045007030965786676,1.31940894575257,2.4204910952259753) " id="svg_43"/>
   <g stroke="null" transform="matrix(0.05081406737990752,0,0,0.045007030965786676,1.31940894575257,2.4204910952259753) " id="svg_44"/>
   <g stroke="null" transform="matrix(0.05081406737990752,0,0,0.045007030965786676,1.31940894575257,2.4204910952259753) " id="svg_45"/>
   <g stroke="null" transform="matrix(0.05081406737990752,0,0,0.045007030965786676,1.31940894575257,2.4204910952259753) " id="svg_46"/>
   <g stroke="null" transform="matrix(0.05081406737990752,0,0,0.045007030965786676,1.31940894575257,2.4204910952259753) " id="svg_47"/>
  </g>
 </g>
</svg>