<svg width="29" height="23" xmlns="http://www.w3.org/2000/svg">
 <!-- Created with SVG Editor - http://github.com/mzalive/SVG Editor/ -->

 <g>
  <title>background</title>
  <rect fill="none" id="canvas_background" height="25" width="31" y="-1" x="-1"/>
  <g display="none" overflow="visible" y="0" x="0" height="100%" width="100%" id="canvasGrid">
   <rect fill="url(#gridpattern)" stroke-width="0" y="0" x="0" height="100%" width="100%"/>
  </g>
 </g>
 <g>
  <title>Layer 1</title>
  <!-- Created with SVG Editor - http://github.com/mzalive/SVG Editor/ -->
  <metadata transform="matrix(0.21006945355070972,0,0,0.21006945355070972,0,0) ">Svg Vector Icons : http://www.onlinewebfonts.com/icon</metadata>
  <metadata transform="matrix(0.21006945355070972,0,0,0.21006945355070972,0,0) ">Svg Vector Icons : http://www.onlinewebfonts.com/icon</metadata>
  <metadata transform="matrix(0.21006945355070972,0,0,0.21006945355070972,0,0) ">Svg Vector Icons : http://www.onlinewebfonts.com/icon</metadata>
  <metadata transform="matrix(0.21006945355070972,0,0,0.21006945355070972,0,0) ">Svg Vector Icons : http://www.onlinewebfonts.com/icon</metadata>
  <metadata transform="matrix(0.003576389641388525,0,0,0.003576389641388525,0,0) ">Created by potrace 1.13, written by Peter Selinger 2001-2015</metadata>
  <metadata transform="matrix(0.25,0,0,0.25,0,0) ">Svg Vector Icons : http://www.onlinewebfonts.com/icon</metadata>
  <metadata transform="matrix(0.25,0,0,0.25,0,0) ">Svg Vector Icons : http://www.onlinewebfonts.com/icon</metadata>
  <metadata transform="matrix(0.25,0,0,0.25,0,0) ">Svg Vector Icons : http://www.onlinewebfonts.com/icon</metadata>
  <metadata transform="matrix(0.25,0,0,0.25,0,0) ">Svg Vector Icons : http://www.onlinewebfonts.com/icon</metadata>
  <path id="svg_157" d="m1.46875,9.5625" opacity="0.5" fill-opacity="0" stroke-width="null" fill="#000000"/>
  <style transform="matrix(0.011377778328789612,0,0,0.011377778328789612,0,0) " type="text/css">.st0{fill:#FFFFFF;}</style>
  <g stroke="null" id="svg_211">
   <g id="svg_205" fill="#000000" transform="matrix(0.003624418745164118,0,0,-0.003772801202973422,-15.155412685028889,15.441386981620163) ">
    <path stroke="null" id="svg_206" d="m9052.123535,4050.018768c-592,-49 -1074,-270 -1478,-678c-122,-123 -206,-226 -300,-372c-426,-657 -475,-1502 -127,-2205c360,-729 1094,-1221 1890,-1268c422,-25 806,52 1172,235c113,56 157,65 195,39c11,-8 66,-74 122,-147c55,-73 347,-455 649,-848c523,-683 550,-716 601,-742c64,-33 100,-35 157,-9c52,24 91,63 115,115c23,52 23,90 0,142c-10,23 -198,275 -417,560c-218,285 -425,555 -459,599c-61,80 -143,187 -279,363c-124,161 -156,211 -156,243c0,43 13,64 103,159c194,205 326,403 436,654c333,757 218,1641 -297,2291c-138,174 -366,383 -552,505c-263,173 -616,305 -920,344c-121,16 -371,27 -455,20zm296,-364c145,-15 335,-55 458,-96c595,-198 1056,-684 1225,-1289c172,-618 18,-1296 -403,-1772c-313,-355 -735,-575 -1214,-634c-157,-19 -452,-7 -606,26c-371,78 -676,238 -944,494c-292,280 -474,619 -553,1026c-24,124 -27,164 -27,345c-1,183 2,220 27,345c80,413 254,736 553,1026c260,252 579,420 937,494c207,42 369,53 547,35z"/>
    <path stroke="null" id="svg_207" d="m4375.123535,3452.018768c-66,-29 -127,-117 -128,-183c0,-43 32,-112 66,-145c65,-61 17,-58 1021,-58c595,0 931,4 955,10c47,14 125,98 134,146c17,90 -26,179 -105,221l-44,23l-936,-1c-709,0 -943,-4 -963,-13z"/>
    <path stroke="null" id="svg_208" d="m4372.123535,1999.018768c-72,-37 -125,-118 -125,-186c1,-68 69,-162 137,-188c14,-5 325,-9 750,-9l726,0l42,25c61,35 105,106 105,170c0,75 -48,148 -122,186c-36,18 -67,19 -760,19c-639,-1 -726,-3 -753,-17z"/>
    <path stroke="null" id="svg_209" d="m4372.123535,539.018768c-72,-37 -124,-114 -125,-181c0,-70 51,-146 122,-183c37,-19 67,-19 946,-17l908,3l35,24c111,76 131,206 46,298c-72,78 -5,73 -1006,73c-796,-1 -899,-3 -926,-17z"/>
    <path stroke="null" id="svg_210" d="m4372.123535,-972.981232c-68,-31 -125,-115 -125,-185c1,-68 81,-176 142,-191c13,-3 781,-4 1708,-3l1685,3l33,23c17,13 44,40 60,59c24,33 27,45 27,114c0,71 -2,80 -31,115c-17,21 -50,49 -74,61l-43,23l-1671,0c-1600,0 -1673,-1 -1711,-19z"/>
   </g>
  </g>
 </g>
</svg>