<svg width="29" height="24" xmlns="http://www.w3.org/2000/svg">
 <!-- Created with SVG Editor - http://github.com/mzalive/SVG Editor/ -->

 <g>
  <title>background</title>
  <rect fill="none" id="canvas_background" height="26" width="31" y="-1" x="-1"/>
  <g display="none" overflow="visible" y="0" x="0" height="100%" width="100%" id="canvasGrid">
   <rect fill="url(#gridpattern)" stroke-width="0" y="0" x="0" height="100%" width="100%"/>
  </g>
 </g>
 <g>
  <title>Layer 1</title>
  <!-- Created with SVG Editor - http://github.com/mzalive/SVG Editor/ -->
  <metadata transform="matrix(0.21006945355070972,0,0,0.21006945355070972,0,0) ">Svg Vector Icons : http://www.onlinewebfonts.com/icon</metadata>
  <metadata transform="matrix(0.21006945355070972,0,0,0.21006945355070972,0,0) ">Svg Vector Icons : http://www.onlinewebfonts.com/icon</metadata>
  <metadata transform="matrix(0.21006945355070972,0,0,0.21006945355070972,0,0) ">Svg Vector Icons : http://www.onlinewebfonts.com/icon</metadata>
  <metadata transform="matrix(0.21006945355070972,0,0,0.21006945355070972,0,0) ">Svg Vector Icons : http://www.onlinewebfonts.com/icon</metadata>
  <metadata transform="matrix(0.003576389641388525,0,0,0.003576389641388525,0,0) ">Created by potrace 1.13, written by Peter Selinger 2001-2015</metadata>
  <metadata transform="matrix(0.25,0,0,0.25,0,0) ">Svg Vector Icons : http://www.onlinewebfonts.com/icon</metadata>
  <metadata transform="matrix(0.25,0,0,0.25,0,0) ">Svg Vector Icons : http://www.onlinewebfonts.com/icon</metadata>
  <metadata transform="matrix(0.25,0,0,0.25,0,0) ">Svg Vector Icons : http://www.onlinewebfonts.com/icon</metadata>
  <metadata transform="matrix(0.25,0,0,0.25,0,0) ">Svg Vector Icons : http://www.onlinewebfonts.com/icon</metadata>
  <path id="svg_157" d="m1.46875,9.5625" opacity="0.5" fill-opacity="0" stroke-width="null" fill="#000000"/>
  <style transform="matrix(0.011377778328789612,0,0,0.011377778328789612,0,0) " type="text/css">.st0{fill:#FFFFFF;}</style>
  <!-- Created with SVG Editor - http://github.com/mzalive/SVG Editor/ -->
  <metadata transform="matrix(0.21006945355070972,0,0,0.21006945355070972,0,0) ">Svg Vector Icons : http://www.onlinewebfonts.com/icon</metadata>
  <style transform="matrix(0.013767110379113101,0,0,0.013767110379113101,0,0) " type="text/css">.st0{fill:#FFFFFF;}</style>
  <metadata transform="matrix(0.004256198712383252,0,0,0.004256198712383252,0,0) ">Created by potrace 1.13, written by Peter Selinger 2001-2015</metadata>
  <g stroke="null" id="svg_289">
   <g id="svg_285" fill="#000000" transform="matrix(0.0014213432615624677,0,0,-0.0014289124658602489,-33.92226474094416,-5.122591649116273) ">
    <path stroke="null" id="svg_286" d="m24581.833984,-4093.130859c-3,-8 -14,-15 -25,-15c-27,0 -131,-59 -166,-95c-35,-35 -95,-139 -95,-165c0,-10 -4,-22 -10,-25c-13,-8 -13,-192 0,-200c6,-3 10,-14 10,-25c0,-52 101,-182 175,-226c87,-50 47,-49 1155,-55c575,-3 1061,-9 1080,-13c78,-15 118,-28 195,-61c161,-69 290,-166 404,-303c66,-80 137,-199 152,-257c8,-29 19,-70 39,-140c6,-19 15,-52 21,-72c13,-48 28,-99 40,-140c5,-18 14,-49 19,-68c6,-19 15,-51 20,-70c6,-19 14,-50 19,-67c5,-18 24,-80 41,-138c17,-58 36,-120 41,-137c5,-18 13,-48 18,-65c5,-18 24,-80 41,-138c17,-58 36,-120 41,-137c5,-18 13,-48 18,-65c5,-18 24,-80 41,-138c17,-58 36,-121 41,-140c17,-61 27,-92 59,-200c17,-58 35,-118 40,-135c5,-16 18,-61 30,-100c12,-38 26,-86 31,-105c17,-61 27,-92 59,-200c17,-58 36,-121 41,-140c17,-61 27,-92 59,-200c17,-58 36,-120 41,-137c5,-18 13,-48 18,-65c5,-18 24,-80 41,-138c17,-58 35,-118 40,-135c5,-16 18,-61 30,-100c12,-38 26,-86 31,-105c17,-61 27,-92 59,-200c17,-58 36,-120 41,-137c5,-18 13,-48 18,-65c5,-18 24,-80 41,-138c17,-58 36,-120 41,-137c5,-18 13,-48 18,-65c5,-18 24,-80 41,-138c17,-58 36,-121 41,-140c17,-61 27,-92 59,-200c17,-58 36,-120 41,-137c5,-18 13,-48 18,-65c5,-18 28,-96 51,-173c23,-77 46,-156 51,-175c17,-61 27,-92 59,-200c17,-58 36,-120 41,-137c5,-18 14,-49 19,-68c6,-19 15,-51 20,-70c6,-19 14,-50 19,-67c5,-18 28,-96 51,-173c23,-77 46,-155 51,-172c5,-18 14,-49 19,-68c6,-19 15,-52 21,-72c19,-68 27,-96 69,-238c23,-77 46,-156 51,-175c6,-19 14,-50 20,-67c12,-42 26,-93 40,-140c5,-21 14,-51 19,-68c5,-16 13,-46 19,-65c5,-19 14,-51 20,-70c5,-19 14,-51 20,-70c5,-19 14,-51 20,-70c5,-19 15,-52 20,-72c6,-21 16,-55 22,-75c5,-21 14,-53 20,-70c5,-18 14,-49 19,-68c6,-19 15,-51 20,-70c6,-19 15,-52 21,-72c5,-21 14,-53 20,-70c5,-18 14,-50 20,-70c5,-21 14,-51 19,-68c15,-52 31,-109 40,-145c5,-19 14,-53 20,-75c6,-22 15,-56 20,-75c5,-19 18,-71 30,-115c12,-44 26,-98 30,-120c5,-22 13,-58 19,-80c9,-37 14,-56 41,-150c6,-19 14,-50 19,-67c51,-185 168,-466 283,-681c269,-500 668,-884 1113,-1072c22,-9 49,-21 60,-26c11,-4 52,-18 90,-30c39,-12 79,-25 90,-30c30,-11 132,-32 255,-52c57,-9 1044,-12 4055,-12l3980,0l68,32c201,96 291,339 197,538c-49,104 -128,179 -229,219c-41,16 -282,17 -3910,17c-3319,-1 -3884,1 -3991,14c-141,16 -222,33 -280,57c-14,6 -34,14 -45,18c-142,55 -289,153 -415,280c-74,75 -210,240 -210,256c0,3 -13,24 -29,47c-59,86 -156,275 -202,395c-5,12 -13,32 -18,45c-5,12 -15,40 -22,62c-7,22 -17,46 -23,53c-5,7 -6,15 -3,19c4,3 1982,5 4396,4c4371,-2 4573,-1 4811,31c398,53 660,190 867,456c143,182 381,606 560,997c23,50 60,129 82,178c106,226 121,259 121,262c0,2 17,41 39,87c21,45 80,175 131,288c51,113 114,252 140,310c61,133 235,524 524,1175c125,281 240,538 257,573c16,35 29,65 29,68c0,2 18,43 40,90c22,47 40,88 40,90c0,4 534,1206 589,1327c17,37 31,69 31,71c0,2 18,44 41,93c40,88 48,106 89,198c21,49 42,95 93,205c60,132 77,171 77,183c0,7 4,17 8,23c5,5 19,43 31,84c13,41 27,84 31,95c19,51 30,93 30,113c0,11 4,23 9,26c5,3 11,23 14,43c3,21 11,63 17,93c27,135 34,217 34,385c0,99 -5,205 -11,235c-25,116 -32,143 -54,198c-5,12 -13,33 -19,47c-23,58 -37,83 -74,140c-94,142 -201,239 -349,315c-126,64 -197,86 -392,120c-76,13 -12766,15 -12810,2c-119,-35 -208,-110 -262,-220c-34,-67 -38,-86 -42,-165c-2,-73 1,-100 19,-150c28,-75 67,-134 120,-179c36,-32 64,-47 155,-89c25,-12 1017,-14 6402,-16l6373,-2l46,-23c74,-37 100,-107 90,-249c-7,-121 -19,-188 -54,-319c-14,-52 -61,-191 -77,-225c-32,-73 -67,-150 -99,-217c-18,-40 -45,-98 -59,-128c-13,-30 -39,-86 -57,-125c-18,-38 -58,-128 -90,-200c-32,-71 -70,-157 -85,-190c-15,-33 -33,-73 -40,-90c-8,-16 -32,-70 -54,-118c-23,-49 -41,-91 -41,-93c0,-3 -18,-43 -40,-90c-22,-47 -40,-88 -40,-90c0,-2 -11,-27 -24,-56c-13,-29 -34,-75 -46,-103c-12,-27 -28,-63 -35,-80c-8,-16 -131,-295 -275,-620c-144,-324 -274,-618 -291,-653c-16,-35 -29,-65 -29,-68c0,-2 -18,-43 -40,-90c-22,-47 -40,-88 -40,-90c0,-3 -18,-43 -40,-90c-22,-47 -40,-88 -40,-90c0,-2 -14,-34 -31,-71c-17,-38 -84,-187 -149,-333c-130,-292 -156,-350 -206,-458c-19,-41 -34,-75 -34,-77c0,-2 -20,-45 -44,-97c-24,-51 -58,-127 -76,-168c-28,-63 -121,-269 -233,-510c-194,-422 -336,-690 -484,-912c-88,-133 -170,-181 -369,-217c-43,-8 -1387,-11 -4690,-11l-4629,0l-12,27c-6,16 -14,42 -17,58c-9,38 -22,89 -36,140c-6,22 -15,56 -20,75c-5,19 -14,53 -20,75c-6,22 -15,56 -20,75c-5,19 -14,53 -20,75c-6,22 -15,56 -20,75c-5,19 -14,53 -20,75c-6,22 -15,56 -20,75c-4,19 -15,61 -24,93c-14,51 -33,119 -56,202c-5,17 -15,55 -23,85c-9,30 -23,82 -32,115c-22,79 -30,108 -49,177c-9,32 -23,83 -31,113c-8,30 -22,80 -30,110c-8,30 -22,81 -31,113c-9,31 -19,71 -24,87c-5,17 -15,56 -24,88c-9,31 -23,83 -32,115c-9,31 -20,72 -25,90c-5,17 -13,47 -18,65c-5,17 -17,59 -26,92c-9,33 -25,92 -36,130c-11,39 -24,88 -30,110c-6,22 -15,51 -19,65c-8,25 -14,47 -50,180c-36,133 -42,155 -50,180c-4,14 -13,43 -19,65c-6,22 -24,90 -41,150c-34,123 -49,176 -61,220c-5,17 -27,95 -49,175c-42,152 -57,205 -71,255c-5,17 -23,80 -39,140c-46,169 -52,188 -60,215c-8,25 -14,47 -50,180c-36,133 -42,155 -50,180c-4,14 -13,43 -19,65c-6,22 -29,105 -51,185c-22,80 -45,163 -51,185c-6,22 -15,51 -19,65c-4,14 -13,43 -19,65c-6,22 -29,105 -51,185c-22,80 -45,163 -51,185c-6,22 -15,51 -19,65c-4,14 -13,43 -18,65c-6,22 -20,72 -31,110c-11,39 -30,104 -41,145c-39,144 -42,155 -50,180c-4,14 -13,43 -18,65c-6,22 -20,72 -31,110c-11,39 -30,104 -41,145c-39,144 -42,155 -50,180c-4,14 -13,45 -20,70c-7,25 -16,56 -20,70c-4,14 -13,43 -19,65c-6,22 -19,72 -30,110c-11,39 -27,97 -36,130c-24,85 -35,126 -45,160c-5,17 -13,46 -19,65c-5,19 -19,69 -31,110c-11,41 -30,109 -41,150c-21,77 -33,121 -50,178c-10,35 -17,61 -48,172c-12,41 -30,109 -42,150c-33,117 -36,131 -55,200c-53,203 -209,419 -387,538c-78,52 -236,132 -260,132c-9,0 -19,5 -22,10c-3,6 -19,10 -35,10c-16,0 -32,5 -35,10c-3,6 -19,10 -34,10c-15,0 -31,4 -37,9c-5,5 -29,12 -54,15c-25,4 -74,11 -110,16c-36,6 -119,14 -184,18c-76,6 -121,13 -124,20c-3,9 -295,12 -1187,12c-1042,0 -1184,-2 -1189,-15z"/>
    <path stroke="null" id="svg_287" d="m31655.833984,-16358.130859c-14,-4 -42,-8 -62,-9c-43,-1 -130,-20 -243,-52c-523,-150 -949,-508 -1190,-1000c-86,-178 -134,-334 -176,-573c-16,-95 -16,-410 0,-516c69,-443 247,-799 550,-1100c184,-183 399,-323 651,-422c14,-6 33,-14 42,-19c10,-5 27,-9 37,-9c11,0 23,-4 26,-10c3,-5 19,-10 35,-10c16,0 31,-4 34,-9c3,-5 20,-11 38,-14c18,-3 56,-11 83,-17c114,-25 211,-33 400,-32c217,0 320,11 485,52c25,6 57,14 73,17c15,3 30,9 33,14c3,5 14,9 25,9c10,0 27,4 37,9c16,8 40,18 95,40c239,95 502,284 687,493c235,266 389,587 452,948c16,85 16,545 0,630c-77,437 -287,817 -607,1102c-96,85 -219,176 -315,232c-86,50 -273,136 -295,136c-7,0 -17,5 -20,10c-3,6 -17,10 -30,10c-13,0 -26,4 -29,9c-3,5 -18,11 -33,14c-16,3 -48,11 -73,17c-75,19 -132,31 -195,41c-76,13 -482,20 -515,9zm427,-791c94,-22 128,-31 145,-40c10,-5 22,-9 28,-9c6,0 49,-18 96,-40c297,-139 532,-421 612,-735c28,-111 32,-146 32,-280c0,-134 -4,-169 -32,-280c-86,-337 -347,-634 -673,-766c-37,-15 -140,-46 -195,-59c-72,-18 -357,-19 -425,-1c-116,29 -131,33 -147,42c-10,5 -22,9 -28,9c-11,0 -132,57 -186,88c-163,93 -363,310 -437,475c-44,96 -57,133 -75,202c-6,22 -16,60 -22,85c-16,60 -16,343 0,411c15,64 47,176 59,204c88,211 251,409 433,528c48,31 89,57 92,57c3,0 33,13 68,29c82,37 128,52 243,80c57,13 355,13 412,0z"/>
    <path stroke="null" id="svg_288" d="m39434.833984,-16353.130859c-4,-3 -38,-10 -75,-15c-65,-8 -99,-15 -199,-38c-40,-9 -182,-55 -220,-71c-71,-30 -247,-119 -282,-143c-23,-15 -45,-28 -49,-28c-17,0 -207,-152 -293,-235c-262,-253 -418,-523 -531,-920c-4,-16 -13,-61 -19,-100c-7,-38 -16,-95 -21,-126c-13,-72 -13,-376 0,-448c5,-31 14,-87 21,-126c13,-84 16,-94 69,-259c50,-154 153,-362 248,-496c77,-110 302,-340 412,-422c174,-129 406,-245 600,-299c208,-59 304,-71 550,-71c193,0 269,6 400,32c30,6 70,13 88,17c18,3 35,9 38,14c3,5 16,9 29,9c13,0 27,5 30,10c3,6 17,10 30,10c13,0 27,4 30,10c3,5 15,10 26,10c10,0 27,4 37,9c9,6 64,32 122,59c209,99 355,204 535,386c254,255 425,569 504,926c32,147 36,186 36,405c0,219 -4,258 -36,405c-110,495 -425,947 -839,1204c-143,89 -299,165 -403,198c-111,34 -256,69 -352,84c-57,8 -479,17 -486,9zm415,-796c22,-6 59,-15 81,-21c121,-31 203,-69 325,-147c193,-124 357,-327 437,-541c20,-53 26,-75 55,-185c17,-68 17,-366 -1,-425c-7,-25 -17,-63 -23,-85c-83,-320 -353,-623 -663,-742c-77,-29 -98,-36 -210,-64c-66,-17 -357,-18 -413,-1c-23,7 -61,17 -84,23c-74,20 -100,30 -203,80c-239,116 -431,319 -534,564c-47,112 -49,116 -56,150c-3,17 -11,55 -18,85c-15,73 -15,341 0,410c7,30 15,69 18,85c4,17 10,39 15,50c4,11 18,47 31,80c68,179 207,355 382,486c75,56 250,149 281,149c8,0 18,5 21,10c3,6 16,10 27,10c12,0 35,4 52,9c17,6 47,14 66,19c49,14 364,14 414,1z"/>
   </g>
  </g>
 </g>
</svg>