<svg width="25" height="22" xmlns="http://www.w3.org/2000/svg">
 <!-- Created with SVG Editor - http://github.com/mzalive/SVG Editor/ -->

 <g>
  <title>background</title>
  <rect fill="none" id="canvas_background" height="24" width="27" y="-1" x="-1"/>
  <g display="none" overflow="visible" y="0" x="0" height="100%" width="100%" id="canvasGrid">
   <rect fill="url(#gridpattern)" stroke-width="0" y="0" x="0" height="100%" width="100%"/>
  </g>
 </g>
 <g>
  <title>Layer 1</title>
  <!-- Created with SVG Editor - http://github.com/mzalive/SVG Editor/ -->
  <metadata transform="matrix(0.21006945355070972,0,0,0.21006945355070972,0,0) ">Svg Vector Icons : http://www.onlinewebfonts.com/icon</metadata>
  <metadata transform="matrix(0.21006945355070972,0,0,0.21006945355070972,0,0) ">Svg Vector Icons : http://www.onlinewebfonts.com/icon</metadata>
  <metadata transform="matrix(0.21006945355070972,0,0,0.21006945355070972,0,0) ">Svg Vector Icons : http://www.onlinewebfonts.com/icon</metadata>
  <metadata transform="matrix(0.21006945355070972,0,0,0.21006945355070972,0,0) ">Svg Vector Icons : http://www.onlinewebfonts.com/icon</metadata>
  <metadata transform="matrix(0.003576389641388525,0,0,0.003576389641388525,0,0) ">Created by potrace 1.13, written by Peter Selinger 2001-2015</metadata>
  <metadata transform="matrix(0.25,0,0,0.25,0,0) ">Svg Vector Icons : http://www.onlinewebfonts.com/icon</metadata>
  <metadata transform="matrix(0.25,0,0,0.25,0,0) ">Svg Vector Icons : http://www.onlinewebfonts.com/icon</metadata>
  <metadata transform="matrix(0.25,0,0,0.25,0,0) ">Svg Vector Icons : http://www.onlinewebfonts.com/icon</metadata>
  <metadata transform="matrix(0.25,0,0,0.25,0,0) ">Svg Vector Icons : http://www.onlinewebfonts.com/icon</metadata>
  <path id="svg_157" d="m1.46875,9.5625" opacity="0.5" fill-opacity="0" stroke-width="null" fill="#000000"/>
  <style transform="matrix(0.011377778328789612,0,0,0.011377778328789612,0,0) " type="text/css">.st0{fill:#FFFFFF;}</style>
  <!-- Created with SVG Editor - http://github.com/mzalive/SVG Editor/ -->
  <metadata transform="matrix(0.21006945355070972,0,0,0.21006945355070972,0,0) ">Svg Vector Icons : http://www.onlinewebfonts.com/icon</metadata>
  <style transform="matrix(0.013767110379113101,0,0,0.013767110379113101,0,0) " type="text/css">.st0{fill:#FFFFFF;}</style>
  <metadata transform="matrix(0.21006945355070972,0,0,0.21006945355070972,0,0) ">Svg Vector Icons : http://www.onlinewebfonts.com/icon</metadata>
  <g stroke="null" id="svg_281">
   <g stroke="null" transform="matrix(0.10413725111902959,0,0,0.10368003574050007,6.556614388596885,5.6025535675828015) " id="svg_278">
    <g stroke="null" id="svg_279">
     <path stroke="null" id="svg_280" d="m100.772443,115.657256l-76,0l0,-11.8l80.9,0l22.6,22.6l0,-22.6l34.5,0l0,-117.6l-17.3,0l0,-11.7l14.5,0c8,0 14.5,6.5 14.5,14.5l0,112.1c0,8 -6.5,14.5 -14.5,14.5l-20,0l0,39.2l-39.2,-39.2zm-127.8,-25.9l-20,0c-8,0 -14.5,-6.5 -14.5,-14.5l0,-112.1c0,-8 6.5,-14.5 14.5,-14.5l163.9,0c8,0 14.5,6.5 14.5,14.5l0,112.1c0,8 -6.5,14.5 -14.5,14.5l-104.7,0l-39.3,39.3l0.1,-39.3l0,0zm11.7,10.9l22.6,-22.6l112.3,0l0,-117.7l-169.4,0l0,117.6l34.5,0l0,22.7zm93.3,-71.3c-5.6,0 -10.2,-4.6 -10.2,-10.2c0,-5.6 4.6,-10.2 10.2,-10.2s10.2,4.6 10.2,10.2c0.1,5.7 -4.5,10.2 -10.2,10.2zm-43.1,0c-5.6,0 -10.2,-4.6 -10.2,-10.2c0,-5.6 4.6,-10.2 10.2,-10.2c5.6,0 10.2,4.6 10.2,10.2c0,5.7 -4.6,10.2 -10.2,10.2zm-43.1,0c-5.6,0 -10.2,-4.6 -10.2,-10.2c0,-5.6 4.6,-10.2 10.2,-10.2c5.6,0 10.2,4.6 10.2,10.2c0,5.7 -4.6,10.2 -10.2,10.2z" fill="#000000"/>
    </g>
   </g>
  </g>
 </g>
</svg>